<svg width="24" height="24" viewBox="0 0 24 24" fill="none" xmlns="http://www.w3.org/2000/svg">
<g clip-path="url(#clip0)">
<path d="M23.1746 11.1746H20.7302C20.2857 11.1746 19.9048 11.5556 19.9048 12C19.9048 12.4445 20.2857 12.8254 20.7302 12.8254H23.1746C23.6191 12.8254 24 12.4445 24 12C24 11.5556 23.6191 11.1746 23.1746 11.1746Z" fill="#D7141D"/>
<path d="M12 19.9048C11.5555 19.9048 11.1746 20.2857 11.1746 20.7302V23.1746C11.1746 23.6191 11.5555 24 12 24C12.4444 24 12.8254 23.6191 12.8254 23.1746V20.7302C12.8254 20.2857 12.4444 19.9048 12 19.9048Z" fill="#D7141D"/>
<path d="M20.4762 19.3333L18.7302 17.5873C18.4445 17.2698 17.9048 17.2698 17.5873 17.5873C17.2699 17.9047 17.2699 18.4127 17.5873 18.7301L19.3334 20.4762C19.6508 20.7936 20.1588 20.7936 20.4762 20.4762C20.7937 20.1587 20.7937 19.6508 20.4762 19.3333Z" fill="#D7141D"/>
<path d="M12 0C11.5555 0 11.1746 0.380952 11.1746 0.825396V3.26984C11.1746 3.71428 11.5555 4.09523 12 4.09523C12.4444 4.09523 12.8254 3.71428 12.8254 3.26984V0.825396C12.8254 0.380952 12.4444 0 12 0Z" fill="#D7141D"/>
<path d="M20.508 3.5238C20.1905 3.20634 19.6826 3.20634 19.3651 3.5238L17.6191 5.26983C17.3016 5.58729 17.3016 6.09522 17.6191 6.41268C17.9048 6.73014 18.4445 6.73014 18.7619 6.41268L20.508 4.66665C20.8254 4.34919 20.8254 3.84126 20.508 3.5238Z" fill="#D7141D"/>
<path d="M3.26984 11.1746H0.825396C0.380952 11.1746 0 11.5556 0 12C0 12.4445 0.349206 12.8254 0.825396 12.8254H3.26984C3.71428 12.8254 4.09523 12.4445 4.09523 12C4.09523 11.5556 3.71428 11.1746 3.26984 11.1746Z" fill="#D7141D"/>
<path d="M6.38101 17.5873C6.0953 17.2698 5.55562 17.2698 5.23816 17.5873L3.49212 19.3333C3.17466 19.6508 3.17466 20.1587 3.49212 20.4762C3.80958 20.7936 4.31752 20.7936 4.63498 20.4762L6.38101 18.7301C6.69847 18.4127 6.69847 17.9047 6.38101 17.5873Z" fill="#D7141D"/>
<path d="M6.38101 5.26983L4.63498 3.5238C4.31752 3.20634 3.80958 3.20634 3.49212 3.5238C3.17466 3.84126 3.17466 4.34919 3.49212 4.66665L5.23816 6.41268C5.55562 6.73014 6.06355 6.73014 6.38101 6.41268C6.69847 6.09522 6.69847 5.58729 6.38101 5.26983Z" fill="#D7141D"/>
<path d="M16.254 7.74604C15.1746 6.66667 13.6508 5.96826 12 5.96826C10.3492 5.96826 8.8254 6.63493 7.74604 7.74604C6.66667 8.8254 5.96826 10.3492 5.96826 12C5.96826 13.6508 6.66667 15.1746 7.74604 16.254C8.8254 17.3333 10.3492 18.0318 12 18.0318C13.6508 18.0318 15.1746 17.3651 16.254 16.254C17.3333 15.1746 18.0318 13.6508 18.0318 12C18.0318 10.3492 17.3651 8.8254 16.254 7.74604ZM15.1111 15.1111C14.3175 15.9048 13.2064 16.381 12 16.381C10.7937 16.381 9.68255 15.9048 8.8889 15.1111C8.09525 14.3175 7.61906 13.2064 7.61906 12C7.61906 10.7937 8.09525 9.68255 8.8889 8.8889C9.68255 8.09525 10.7937 7.61906 12 7.61906C13.2064 7.61906 14.3175 8.09525 15.1111 8.8889C15.9048 9.68255 16.381 10.7937 16.381 12C16.381 13.2064 15.9048 14.3175 15.1111 15.1111Z" fill="#D7141D"/>
</g>
<defs>
<clipPath id="clip0">
<rect width="24" height="24" fill="white"/>
</clipPath>
</defs>
</svg>
