<svg width="24" height="24" viewBox="0 0 24 24" fill="none" xmlns="http://www.w3.org/2000/svg">
<path d="M23.2969 0H20.4844C20.0961 0 19.7812 0.314812 19.7812 0.703125V1.40625H4.21875V0.703125C4.21875 0.314812 3.90394 0 3.51562 0H0.703125C0.314812 0 0 0.314812 0 0.703125V3.51562C0 3.90394 0.314812 4.21875 0.703125 4.21875H1.40625V19.7812H0.703125C0.314812 19.7812 0 20.0961 0 20.4844V23.2969C0 23.6852 0.314812 24 0.703125 24H3.51562C3.90394 24 4.21875 23.6852 4.21875 23.2969V22.5938H19.7812V23.2969C19.7812 23.6852 20.0961 24 20.4844 24H23.2969C23.6852 24 24 23.6852 24 23.2969V20.4844C24 20.0961 23.6852 19.7812 23.2969 19.7812H22.5938V4.21875H23.2969C23.6852 4.21875 24 3.90394 24 3.51562V0.703125C24 0.314812 23.6852 0 23.2969 0ZM21.1875 19.7812H20.4844C20.0961 19.7812 19.7812 20.0961 19.7812 20.4844V21.1875H4.21875V20.4844C4.21875 20.0961 3.90394 19.7812 3.51562 19.7812H2.8125V4.21875H3.51562C3.90394 4.21875 4.21875 3.90394 4.21875 3.51562V2.8125H19.7812V3.51562C19.7812 3.90394 20.0961 4.21875 20.4844 4.21875H21.1875V19.7812Z" fill="#D7141D"/>
<path d="M19.0781 5.625H4.92188C4.53356 5.625 4.21875 5.93981 4.21875 6.32812V7.73438C4.21875 8.12269 4.53356 8.4375 4.92188 8.4375C5.31019 8.4375 5.625 8.12269 5.625 7.73438V7.03125H9.89062V16.9688H9.1875C8.79919 16.9688 8.48438 17.2836 8.48438 17.6719C8.48438 18.0602 8.79919 18.375 9.1875 18.375H14.8125C15.2008 18.375 15.5156 18.0602 15.5156 17.6719C15.5156 17.2836 15.2008 16.9688 14.8125 16.9688H14.1094V7.03125H18.375V7.73438C18.375 8.12269 18.6898 8.4375 19.0781 8.4375C19.4664 8.4375 19.7812 8.12269 19.7812 7.73438V6.32812C19.7812 5.93981 19.4664 5.625 19.0781 5.625Z" fill="#D7141D"/>
</svg>
