<svg width="24" height="24" viewBox="0 0 24 24" fill="none" xmlns="http://www.w3.org/2000/svg">
<circle cx="12" cy="12" r="12" fill="#D7141D"/>
<g clip-path="url(#clip0)">
<path d="M12.0008 6C10.2865 6 8.88513 7.40135 8.88513 9.11565C8.88513 10.8299 10.2865 12.2313 12.0008 12.2313C13.7151 12.2313 15.1164 10.8299 15.1164 9.11565C15.1164 7.40135 13.7151 6 12.0008 6Z" fill="white"/>
<path d="M17.3478 14.7211C17.2661 14.5171 17.1573 14.3266 17.0349 14.1497C16.409 13.2245 15.443 12.6123 14.3546 12.4626C14.2185 12.449 14.0689 12.4762 13.96 12.5579C13.3886 12.9796 12.7083 13.1973 12.0008 13.1973C11.2933 13.1973 10.6131 12.9796 10.0416 12.5579C9.9328 12.4762 9.78313 12.4354 9.64709 12.4626C8.55865 12.6123 7.57907 13.2245 6.96683 14.1497C6.84438 14.3266 6.73553 14.5307 6.65392 14.7211C6.61311 14.8028 6.6267 14.898 6.66751 14.9797C6.77636 15.1701 6.9124 15.3606 7.03485 15.5239C7.22532 15.7824 7.42941 16.0137 7.66071 16.2314C7.85118 16.4218 8.06886 16.5987 8.28657 16.7756C9.36139 17.5783 10.6539 18.0001 11.9872 18.0001C13.3206 18.0001 14.6131 17.5783 15.6879 16.7756C15.9056 16.6123 16.1233 16.4218 16.3138 16.2314C16.5315 16.0137 16.7491 15.7824 16.9396 15.5239C17.0757 15.347 17.1982 15.1701 17.307 14.9797C17.375 14.898 17.3886 14.8028 17.3478 14.7211Z" fill="white"/>
</g>
<defs>
<clipPath id="clip0">
<rect width="12" height="12" fill="white" transform="translate(6 6)"/>
</clipPath>
</defs>
</svg>
