<svg width="34" height="34" viewBox="0 0 34 34" fill="none" xmlns="http://www.w3.org/2000/svg">
<circle cx="17" cy="17" r="17" fill="#E7E7E7"/>
<path fill-rule="evenodd" clip-rule="evenodd" d="M11.6499 11.65C11.8257 11.4744 12.064 11.3758 12.3124 11.3758C12.5608 11.3758 12.7991 11.4744 12.9749 11.65L16.9999 15.675L21.0249 11.65C21.1108 11.5579 21.2143 11.484 21.3293 11.4328C21.4443 11.3815 21.5684 11.354 21.6943 11.3517C21.8202 11.3495 21.9452 11.3727 22.0619 11.4198C22.1787 11.467 22.2847 11.5372 22.3737 11.6262C22.4628 11.7152 22.5329 11.8213 22.58 11.938C22.6272 12.0547 22.6504 12.1798 22.6482 12.3056C22.6459 12.4315 22.6184 12.5557 22.5672 12.6707C22.5159 12.7857 22.442 12.8892 22.3499 12.975L18.3249 17L22.3499 21.025C22.442 21.1109 22.5159 21.2144 22.5672 21.3294C22.6184 21.4444 22.6459 21.5685 22.6482 21.6944C22.6504 21.8202 22.6272 21.9452 22.58 22.062C22.5329 22.1787 22.4628 22.2847 22.3737 22.3737C22.2847 22.4629 22.1787 22.533 22.0619 22.5801C21.9452 22.6272 21.8202 22.6505 21.6943 22.6482C21.5684 22.646 21.4443 22.6185 21.3293 22.5672C21.2143 22.516 21.1108 22.4421 21.0249 22.35L16.9999 18.325L12.9749 22.35C12.7972 22.5156 12.5621 22.6057 12.3192 22.6015C12.0764 22.5971 11.8446 22.4987 11.6729 22.327C11.5011 22.1552 11.4027 21.9235 11.3984 21.6806C11.3941 21.4377 11.4843 21.2027 11.6499 21.025L15.6749 17L11.6499 12.975C11.4743 12.7992 11.3757 12.5609 11.3757 12.3125C11.3757 12.064 11.4743 11.8258 11.6499 11.65Z" fill="#FF2E2E"/>
</svg>
