<svg width="34" height="34" viewBox="0 0 34 34" fill="none" xmlns="http://www.w3.org/2000/svg">
<circle cx="17" cy="17" r="17" fill="#FF2E2E"/>
<path fill-rule="evenodd" clip-rule="evenodd" d="M11.6502 11.6499C11.8259 11.4744 12.0642 11.3758 12.3127 11.3758C12.5611 11.3758 12.7994 11.4744 12.9752 11.6499L17.0002 15.6749L21.0252 11.6499C21.111 11.5578 21.2145 11.484 21.3295 11.4327C21.4445 11.3815 21.5687 11.3539 21.6945 11.3517C21.8204 11.3495 21.9454 11.3726 22.0622 11.4198C22.1789 11.4669 22.2849 11.5371 22.3739 11.6261C22.463 11.7152 22.5332 11.8212 22.5803 11.9379C22.6274 12.0547 22.6507 12.1797 22.6484 12.3056C22.6462 12.4315 22.6187 12.5556 22.5674 12.6706C22.5162 12.7856 22.4423 12.8891 22.3502 12.9749L18.3252 16.9999L22.3502 21.0249C22.4423 21.1108 22.5162 21.2143 22.5674 21.3293C22.6187 21.4443 22.6462 21.5684 22.6484 21.6943C22.6507 21.8202 22.6274 21.9452 22.5803 22.0619C22.5332 22.1787 22.463 22.2847 22.3739 22.3737C22.2849 22.4628 22.1789 22.5329 22.0622 22.5801C21.9454 22.6272 21.8204 22.6504 21.6945 22.6482C21.5687 22.6459 21.4445 22.6184 21.3295 22.5672C21.2145 22.5159 21.111 22.4421 21.0252 22.3499L17.0002 18.3249L12.9752 22.3499C12.7974 22.5156 12.5624 22.6057 12.3195 22.6014C12.0766 22.5971 11.8449 22.4987 11.6731 22.3269C11.5014 22.1552 11.403 21.9234 11.3987 21.6806C11.3944 21.4377 11.4846 21.2027 11.6502 21.0249L15.6752 16.9999L11.6502 12.9749C11.4746 12.7992 11.376 12.5609 11.376 12.3124C11.376 12.064 11.4746 11.8257 11.6502 11.6499Z" fill="white"/>
</svg>
