<svg width="34" height="34" viewBox="0 0 34 34" fill="none" xmlns="http://www.w3.org/2000/svg">
<circle cx="17" cy="17" r="17" fill="#E7E7E7"/>
<path fill-rule="evenodd" clip-rule="evenodd" d="M12 20.5C12.8284 20.5 13.5 21.1716 13.5 22C13.5 22.8284 12.8284 23.5 12 23.5C11.1716 23.5 10.5 22.8284 10.5 22C10.5 21.1716 11.1716 20.5 12 20.5ZM17 20.5C17.8284 20.5 18.5 21.1716 18.5 22C18.5 22.8284 17.8284 23.5 17 23.5C16.1716 23.5 15.5 22.8284 15.5 22C15.5 21.1716 16.1716 20.5 17 20.5ZM22 20.5C22.8284 20.5 23.5 21.1716 23.5 22C23.5 22.8284 22.8284 23.5 22 23.5C21.1716 23.5 20.5 22.8284 20.5 22C20.5 21.1716 21.1716 20.5 22 20.5ZM12 15.5C12.8284 15.5 13.5 16.1716 13.5 17C13.5 17.8284 12.8284 18.5 12 18.5C11.1716 18.5 10.5 17.8284 10.5 17C10.5 16.1716 11.1716 15.5 12 15.5ZM17 15.5C17.8284 15.5 18.5 16.1716 18.5 17C18.5 17.8284 17.8284 18.5 17 18.5C16.1716 18.5 15.5 17.8284 15.5 17C15.5 16.1716 16.1716 15.5 17 15.5ZM22 15.5C22.8284 15.5 23.5 16.1716 23.5 17C23.5 17.8284 22.8284 18.5 22 18.5C21.1716 18.5 20.5 17.8284 20.5 17C20.5 16.1716 21.1716 15.5 22 15.5ZM12 10.5C12.8284 10.5 13.5 11.1716 13.5 12C13.5 12.8284 12.8284 13.5 12 13.5C11.1716 13.5 10.5 12.8284 10.5 12C10.5 11.1716 11.1716 10.5 12 10.5ZM17 10.5C17.8284 10.5 18.5 11.1716 18.5 12C18.5 12.8284 17.8284 13.5 17 13.5C16.1716 13.5 15.5 12.8284 15.5 12C15.5 11.1716 16.1716 10.5 17 10.5ZM22 10.5C22.8284 10.5 23.5 11.1716 23.5 12C23.5 12.8284 22.8284 13.5 22 13.5C21.1716 13.5 20.5 12.8284 20.5 12C20.5 11.1716 21.1716 10.5 22 10.5Z" fill="#FF2E2E"/>
</svg>
