<svg width="56" height="56" viewBox="0 0 56 56" fill="none" xmlns="http://www.w3.org/2000/svg">
<path d="M21 23.3333H21.0233" stroke="#D7141D" stroke-width="3.5" stroke-linecap="round" stroke-linejoin="round"/>
<path d="M35 23.3333H35.0233" stroke="#D7141D" stroke-width="3.5" stroke-linecap="round" stroke-linejoin="round"/>
<path d="M22.1665 35.5833C22.9269 34.8072 23.8345 34.1907 24.8361 33.7698C25.8378 33.3489 26.9133 33.1321 27.9998 33.1321C29.0863 33.1321 30.1619 33.3489 31.1635 33.7698C32.1652 34.1907 33.0728 34.8072 33.8332 35.5833" stroke="#D7141D" stroke-width="3.5" stroke-linecap="round" stroke-linejoin="round"/>
<path d="M40.9871 41.0806C40.3507 41.7355 39.9203 42.5627 39.7494 43.4597C39.5785 44.3568 39.6746 45.2843 40.0257 46.1273C40.3768 46.9703 40.9675 47.6918 41.7247 48.2023C42.4819 48.7129 43.3722 48.99 44.2853 48.9995C45.1985 49.0089 46.0944 48.7503 46.8619 48.2555C47.6295 47.7608 48.235 47.0517 48.6035 46.2161C48.972 45.3806 49.0873 44.4553 48.935 43.5549C48.7827 42.6544 48.3696 41.8185 47.7468 41.1506L44.3331 37.3333L40.9871 41.0806V41.0806Z" stroke="#D7141D" stroke-width="3.5" stroke-linecap="round" stroke-linejoin="round"/>
<path d="M48.685 31.5397C48.8905 30.3709 48.9959 29.1867 49 28C49 23.8466 47.7684 19.7865 45.4609 16.333C43.1534 12.8796 39.8736 10.188 36.0364 8.59854C32.1991 7.0091 27.9767 6.59323 23.9031 7.40352C19.8295 8.21381 16.0877 10.2139 13.1508 13.1508C10.2139 16.0877 8.21381 19.8295 7.40352 23.9031C6.59323 27.9767 7.0091 32.1991 8.59854 36.0364C10.188 39.8736 12.8796 43.1534 16.333 45.4609C19.7865 47.7684 23.8466 49 28 49C29.61 49 31.1733 48.8227 32.6667 48.482" stroke="#D7141D" stroke-width="3.5" stroke-linecap="round" stroke-linejoin="round"/>
</svg>
